<mxfile host="app.diagrams.net" modified="2023-05-25T08:08:38.782Z" agent="Mozilla/5.0 (Windows NT 10.0; Win64; x64) AppleWebKit/537.36 (KHTML, like Gecko) Chrome/113.0.0.0 Safari/537.36" etag="E01RapDWWYW2UutlxIkB" version="21.3.2" type="github">
  <diagram name="第 1 页" id="w-dP5d1A35096484EXeV">
    <mxGraphModel dx="5776" dy="-1218" grid="0" gridSize="10" guides="1" tooltips="1" connect="1" arrows="1" fold="1" page="1" pageScale="1" pageWidth="827" pageHeight="1169" math="0" shadow="0">
      <root>
        <mxCell id="0" />
        <mxCell id="1" parent="0" />
        <mxCell id="Wk6W81CRpbG0xOjxGLHx-1" style="edgeStyle=orthogonalEdgeStyle;rounded=0;orthogonalLoop=1;jettySize=auto;html=1;exitX=0.5;exitY=1;exitDx=0;exitDy=0;exitPerimeter=0;entryX=0.5;entryY=0;entryDx=0;entryDy=0;" edge="1" parent="1" source="Wk6W81CRpbG0xOjxGLHx-2" target="Wk6W81CRpbG0xOjxGLHx-8">
          <mxGeometry relative="1" as="geometry" />
        </mxCell>
        <mxCell id="Wk6W81CRpbG0xOjxGLHx-2" value="开始" style="strokeWidth=2;html=1;shape=mxgraph.flowchart.terminator;whiteSpace=wrap;fontSize=18;" vertex="1" parent="1">
          <mxGeometry x="-2985" y="2372" width="116" height="68" as="geometry" />
        </mxCell>
        <mxCell id="Wk6W81CRpbG0xOjxGLHx-3" style="edgeStyle=orthogonalEdgeStyle;rounded=0;orthogonalLoop=1;jettySize=auto;html=1;exitX=0.5;exitY=1;exitDx=0;exitDy=0;entryX=0.5;entryY=0;entryDx=0;entryDy=0;" edge="1" parent="1" source="Wk6W81CRpbG0xOjxGLHx-8" target="Wk6W81CRpbG0xOjxGLHx-10">
          <mxGeometry relative="1" as="geometry" />
        </mxCell>
        <mxCell id="Wk6W81CRpbG0xOjxGLHx-4" style="edgeStyle=orthogonalEdgeStyle;rounded=0;orthogonalLoop=1;jettySize=auto;html=1;exitX=0.5;exitY=1;exitDx=0;exitDy=0;entryX=0.5;entryY=0;entryDx=0;entryDy=0;" edge="1" parent="1" source="Wk6W81CRpbG0xOjxGLHx-8" target="Wk6W81CRpbG0xOjxGLHx-14">
          <mxGeometry relative="1" as="geometry" />
        </mxCell>
        <mxCell id="Wk6W81CRpbG0xOjxGLHx-5" style="edgeStyle=orthogonalEdgeStyle;rounded=0;orthogonalLoop=1;jettySize=auto;html=1;exitX=0.5;exitY=1;exitDx=0;exitDy=0;" edge="1" parent="1" source="Wk6W81CRpbG0xOjxGLHx-8" target="Wk6W81CRpbG0xOjxGLHx-12">
          <mxGeometry relative="1" as="geometry" />
        </mxCell>
        <mxCell id="Wk6W81CRpbG0xOjxGLHx-6" style="edgeStyle=orthogonalEdgeStyle;rounded=0;orthogonalLoop=1;jettySize=auto;html=1;exitX=0.5;exitY=1;exitDx=0;exitDy=0;entryX=0.5;entryY=0;entryDx=0;entryDy=0;" edge="1" parent="1" source="Wk6W81CRpbG0xOjxGLHx-8" target="Wk6W81CRpbG0xOjxGLHx-15">
          <mxGeometry relative="1" as="geometry" />
        </mxCell>
        <mxCell id="Wk6W81CRpbG0xOjxGLHx-7" style="edgeStyle=orthogonalEdgeStyle;rounded=0;orthogonalLoop=1;jettySize=auto;html=1;exitX=0.5;exitY=1;exitDx=0;exitDy=0;" edge="1" parent="1" source="Wk6W81CRpbG0xOjxGLHx-8" target="Wk6W81CRpbG0xOjxGLHx-17">
          <mxGeometry relative="1" as="geometry" />
        </mxCell>
        <mxCell id="Wk6W81CRpbG0xOjxGLHx-8" value="添加菜品" style="rounded=0;whiteSpace=wrap;html=1;fontSize=18;" vertex="1" parent="1">
          <mxGeometry x="-2987" y="2498" width="120" height="60" as="geometry" />
        </mxCell>
        <mxCell id="Wk6W81CRpbG0xOjxGLHx-9" style="edgeStyle=orthogonalEdgeStyle;rounded=0;orthogonalLoop=1;jettySize=auto;html=1;exitX=0.5;exitY=1;exitDx=0;exitDy=0;entryX=0.5;entryY=0;entryDx=0;entryDy=0;" edge="1" parent="1" source="Wk6W81CRpbG0xOjxGLHx-10" target="Wk6W81CRpbG0xOjxGLHx-21">
          <mxGeometry relative="1" as="geometry">
            <Array as="points">
              <mxPoint x="-3237" y="2897" />
              <mxPoint x="-2924" y="2897" />
            </Array>
          </mxGeometry>
        </mxCell>
        <mxCell id="Wk6W81CRpbG0xOjxGLHx-10" value="食物名称" style="rounded=0;whiteSpace=wrap;html=1;fontSize=18;" vertex="1" parent="1">
          <mxGeometry x="-3282" y="2632.5" width="90" height="86.5" as="geometry" />
        </mxCell>
        <mxCell id="Wk6W81CRpbG0xOjxGLHx-11" style="edgeStyle=orthogonalEdgeStyle;rounded=0;orthogonalLoop=1;jettySize=auto;html=1;exitX=0.5;exitY=1;exitDx=0;exitDy=0;" edge="1" parent="1" source="Wk6W81CRpbG0xOjxGLHx-12">
          <mxGeometry relative="1" as="geometry">
            <mxPoint x="-2925.469940185547" y="3063.525665283203" as="targetPoint" />
          </mxGeometry>
        </mxCell>
        <mxCell id="Wk6W81CRpbG0xOjxGLHx-12" value="价格" style="rounded=0;whiteSpace=wrap;html=1;fontSize=18;" vertex="1" parent="1">
          <mxGeometry x="-2969" y="2632.5" width="90" height="86.5" as="geometry" />
        </mxCell>
        <mxCell id="Wk6W81CRpbG0xOjxGLHx-13" style="edgeStyle=orthogonalEdgeStyle;rounded=0;orthogonalLoop=1;jettySize=auto;html=1;exitX=0.5;exitY=1;exitDx=0;exitDy=0;" edge="1" parent="1" source="Wk6W81CRpbG0xOjxGLHx-14">
          <mxGeometry relative="1" as="geometry">
            <mxPoint x="-2924.090545654297" y="3063.525665283203" as="targetPoint" />
            <Array as="points">
              <mxPoint x="-3082" y="2897" />
              <mxPoint x="-2924" y="2897" />
            </Array>
          </mxGeometry>
        </mxCell>
        <mxCell id="Wk6W81CRpbG0xOjxGLHx-14" value="食物口味" style="rounded=0;whiteSpace=wrap;html=1;fontSize=18;" vertex="1" parent="1">
          <mxGeometry x="-3127" y="2632.5" width="90" height="86.5" as="geometry" />
        </mxCell>
        <mxCell id="Wk6W81CRpbG0xOjxGLHx-15" value="食物类型" style="rounded=0;whiteSpace=wrap;html=1;fontSize=18;" vertex="1" parent="1">
          <mxGeometry x="-2812" y="2632.5" width="90" height="86.5" as="geometry" />
        </mxCell>
        <mxCell id="Wk6W81CRpbG0xOjxGLHx-16" value="" style="edgeStyle=orthogonalEdgeStyle;rounded=0;orthogonalLoop=1;jettySize=auto;html=1;" edge="1" parent="1" source="Wk6W81CRpbG0xOjxGLHx-17" target="Wk6W81CRpbG0xOjxGLHx-19">
          <mxGeometry relative="1" as="geometry" />
        </mxCell>
        <mxCell id="Wk6W81CRpbG0xOjxGLHx-17" value="食物图片" style="rounded=0;whiteSpace=wrap;html=1;fontSize=18;" vertex="1" parent="1">
          <mxGeometry x="-2615" y="2632.5" width="90" height="86.5" as="geometry" />
        </mxCell>
        <mxCell id="Wk6W81CRpbG0xOjxGLHx-18" style="edgeStyle=orthogonalEdgeStyle;rounded=0;orthogonalLoop=1;jettySize=auto;html=1;exitX=0.5;exitY=1;exitDx=0;exitDy=0;entryX=0.5;entryY=0;entryDx=0;entryDy=0;" edge="1" parent="1" source="Wk6W81CRpbG0xOjxGLHx-19" target="Wk6W81CRpbG0xOjxGLHx-21">
          <mxGeometry relative="1" as="geometry">
            <Array as="points">
              <mxPoint x="-2570" y="2897" />
              <mxPoint x="-2924" y="2897" />
            </Array>
          </mxGeometry>
        </mxCell>
        <mxCell id="Wk6W81CRpbG0xOjxGLHx-19" value="图片数据流化" style="shape=parallelogram;html=1;strokeWidth=2;perimeter=parallelogramPerimeter;whiteSpace=wrap;rounded=1;arcSize=12;size=0.23;" vertex="1" parent="1">
          <mxGeometry x="-2634" y="2759" width="128" height="71" as="geometry" />
        </mxCell>
        <mxCell id="Wk6W81CRpbG0xOjxGLHx-20" value="" style="edgeStyle=orthogonalEdgeStyle;rounded=0;orthogonalLoop=1;jettySize=auto;html=1;exitX=0.5;exitY=1;exitDx=0;exitDy=0;" edge="1" parent="1" source="Wk6W81CRpbG0xOjxGLHx-15" target="Wk6W81CRpbG0xOjxGLHx-21">
          <mxGeometry relative="1" as="geometry">
            <mxPoint x="-2924.090545654297" y="3069.0428771972656" as="targetPoint" />
            <mxPoint x="-2767" y="2719" as="sourcePoint" />
            <Array as="points">
              <mxPoint x="-2767" y="2894" />
              <mxPoint x="-2924" y="2894" />
            </Array>
          </mxGeometry>
        </mxCell>
        <mxCell id="Wk6W81CRpbG0xOjxGLHx-21" value="添加完成" style="rounded=0;whiteSpace=wrap;html=1;fontSize=18;" vertex="1" parent="1">
          <mxGeometry x="-2982" y="3041" width="120" height="60" as="geometry" />
        </mxCell>
      </root>
    </mxGraphModel>
  </diagram>
</mxfile>
